<svg width="127" height="86" viewBox="0 0 127 86" fill="none" xmlns="http://www.w3.org/2000/svg">
<path d="M13.0883 15.2588C14.3861 12.1383 16.1807 9.44976 18.4719 7.19334C20.7632 4.93692 23.5351 3.17659 26.7797 1.90435C30.0323 0.640119 33.5733 0 37.4108 0C41.2482 0 44.7732 0.616115 47.9938 1.85635C51.2144 3.09658 53.9863 4.8409 56.3016 7.09732C58.6249 9.35374 60.4194 12.0582 61.6852 15.2108C62.951 18.3634 63.5919 21.8281 63.5919 25.5968C63.5919 29.3655 62.959 32.8301 61.6852 35.9827C60.4194 39.1353 58.6169 41.8398 56.3016 44.0962C53.9783 46.3526 51.2063 48.1129 47.9938 49.3852C44.7732 50.6494 41.2482 51.2895 37.4108 51.2895C33.5733 51.2895 30.0403 50.6574 26.8278 49.3852C23.6072 48.121 20.8353 46.3526 18.52 44.0962C16.1967 41.8398 14.3861 39.1353 13.0883 35.9827C11.7904 32.8301 11.1415 29.3655 11.1415 25.5968C11.1415 21.8281 11.7904 18.3794 13.0883 15.2588ZM49.0673 20.4518C48.4745 18.8755 47.6253 17.5473 46.5117 16.4671C45.3981 15.3869 44.0682 14.5307 42.522 13.9146C40.9758 13.2985 39.2694 12.9864 37.4108 12.9864C35.5521 12.9864 33.8537 13.2985 32.2995 13.9146C30.7533 14.5307 29.4234 15.3949 28.3099 16.5151C27.1963 17.6273 26.3311 18.9555 25.7062 20.4998C25.0893 22.0441 24.7769 23.7484 24.7769 25.5968C24.7769 27.4451 25.0893 29.1654 25.7062 30.7417C26.323 32.318 27.1883 33.6623 28.3099 34.7745C29.4234 35.8867 30.7533 36.7508 32.2995 37.375C33.8457 37.9911 35.5521 38.3031 37.4108 38.3031C39.2694 38.3031 40.9678 37.9911 42.522 37.375C44.0682 36.7588 45.3821 35.8947 46.4716 34.7745C47.5532 33.6623 48.4024 32.334 49.0273 30.7897C49.6441 29.2454 49.9566 27.5171 49.9566 25.5968C49.9566 23.6764 49.6602 22.0281 49.0753 20.4518H49.0673ZM126.81 45.0644C126.417 43.4321 125.448 42.6079 125.448 42.6079C124.15 41.5037 122.179 41.4637 121.987 41.4557C121.987 41.4557 121.843 41.4557 121.722 41.4557C119.663 41.5437 116.859 45.8805 116.211 46.9127C114.969 48.8171 113.174 51.2815 110.683 53.866C107.518 57.1386 104.698 59.123 102.511 60.5873C95.6614 65.1801 89.044 67.7326 89.044 67.7326C78.3248 71.9574 67.902 72.3415 63.1433 72.3175C58.3845 72.2134 47.9778 71.5573 37.3707 67.0525C37.3707 67.0525 30.8254 64.324 24.1039 59.5551C21.9649 58.0348 19.1849 55.9784 16.1166 52.6258C14.4182 50.7774 13.0642 48.9931 11.9987 47.4248C11.7984 47.1288 11.5501 46.7607 11.2537 46.3046C11.2537 46.3046 11.0053 45.9205 10.773 45.5365C9.73952 43.8242 9.37901 42.2159 8.2414 41.1116C7.20793 40.1115 5.62168 39.6234 4.16361 39.8314C2.93787 40.0074 2.07265 40.6316 1.66407 40.9836C1.66407 40.9836 0.670658 41.7838 0.238044 43.4081C-1.5565 50.0493 7.38418 60.9393 7.38418 60.9393C11.1736 65.5562 18.3277 72.8375 30.5931 78.6386C37.9796 82.1273 45.0456 83.4875 48.6828 84.2237C54.3548 85.3679 59.2578 85.816 62.967 86C66.6763 85.912 71.5953 85.5919 77.2913 84.5997C80.9525 83.9596 88.0506 82.7914 95.5252 79.5028C107.943 74.0298 115.281 66.9484 119.199 62.4276C119.199 62.4276 128.428 51.7776 126.81 45.0884V45.0644ZM68.0542 31.7339V41.8398H115.409V29.5975H88.9559L113.367 5.95311H95.5332L68.0462 31.7339H68.0542Z" fill="#5456D1"/>
</svg>
