<svg width="204" height="104" viewBox="0 0 204 104" fill="none" xmlns="http://www.w3.org/2000/svg">
<path d="M36.7669 20.4932C35.774 19.6636 34.7186 18.9162 33.5772 18.2705C31.8065 17.2649 29.8872 16.4822 27.8194 15.9187C25.7517 15.3591 23.6252 15.0774 21.4402 15.0774C18.2505 15.0774 15.3423 15.6409 12.7156 16.764C10.0888 17.887 7.82947 19.4562 5.93758 21.4637C4.04568 23.475 2.58376 25.8973 1.55182 28.7343C0.515971 31.5714 0 34.7058 0 38.1337C0 41.8004 0.621511 45.1852 1.86062 48.2884C3.09974 51.3915 4.82746 54.0681 7.04379 56.3143C9.26012 58.5604 11.9142 60.3057 15.0179 61.5462C18.1215 62.7866 21.5574 63.4088 25.3373 63.4088C29.1172 63.4088 32.4397 62.7866 35.4808 61.5462C38.5219 60.3057 41.1174 58.5174 43.2751 56.1812C45.4289 53.8451 47.098 51.0237 48.2785 47.7131C49.459 44.4026 50.0492 40.7086 50.0492 36.6272V0H36.7629V20.4932H36.7669ZM36.0124 43.1426C35.5082 44.7704 34.7733 46.144 33.7961 47.267C32.8228 48.3901 31.6267 49.2471 30.2078 49.838C28.7928 50.4289 27.1979 50.7263 25.4233 50.7263C23.6487 50.7263 21.9249 50.4328 20.4199 49.838C18.915 49.2471 17.629 48.4175 16.5658 47.3531C15.5026 46.2888 14.6895 45.0326 14.1306 43.5848C13.5677 42.1369 13.2902 40.4973 13.2902 38.662C13.2902 36.948 13.556 35.3945 14.0876 34.0053C14.6192 32.6162 15.401 31.4188 16.4329 30.4131C17.4648 29.4074 18.6922 28.6404 20.1072 28.1082C21.5262 27.576 23.121 27.3099 24.8917 27.3099C28.2572 27.3099 31.3413 28.2569 34.1479 30.147C35.0782 30.7731 35.946 31.5009 36.7629 32.311V37.5076C36.7629 39.6364 36.5128 41.5147 36.0085 43.1387L36.0124 43.1426Z" fill="#5456D1"/>
<path d="M153.935 26.3356V15.8718H109.292V27.3999H135.188L109.026 52.1428V61.8083H154.201V50.1041H128.969L153.935 26.3356Z" fill="#5456D1"/>
<path d="M186.324 50.3232C184.405 51.0628 182.384 51.4306 180.257 51.4306C178.307 51.4306 176.552 51.1215 174.988 50.4993C173.425 49.8771 172.08 49.0084 170.958 47.8814C170.442 47.3649 169.985 46.7975 169.582 46.1792L204 35.465C203.703 32.3305 202.906 29.4661 201.608 26.8638C200.31 24.2616 198.598 22.0311 196.471 20.1684C194.345 18.3058 191.867 16.8735 189.029 15.8679C186.195 14.8622 183.123 14.3613 179.816 14.3613C176.212 14.3613 172.889 14.9678 169.852 16.1809C166.811 17.394 164.212 19.0766 162.058 21.2367C159.9 23.3968 158.219 25.9677 157.008 28.9535C155.796 31.9392 155.19 35.2341 155.19 38.842C155.19 42.4499 155.796 45.7605 157.008 48.7736C158.215 51.7907 159.9 54.3773 162.058 56.5334C164.212 58.6935 166.795 60.3761 169.809 61.5892C172.823 62.8023 176.126 63.4088 179.73 63.4088C183.334 63.4088 186.594 62.8179 189.694 61.6362C192.793 60.4544 195.526 58.7404 197.887 56.4943L191.773 47.0049C190.061 48.484 188.243 49.5915 186.324 50.331V50.3232ZM170.911 29.0865C172.002 27.9634 173.315 27.1065 174.852 26.5156C176.388 25.9247 178.1 25.6273 179.988 25.6273C181.583 25.6273 183.056 25.8503 184.417 26.2925C185.773 26.7347 186.985 27.3569 188.048 28.1552C188.728 28.6678 189.334 29.2587 189.881 29.9161L167.573 36.7954C167.694 35.461 167.96 34.2323 168.382 33.121C168.973 31.5557 169.813 30.2096 170.907 29.0865H170.911Z" fill="#5456D1"/>
<path d="M97.8233 28.5856C95.607 26.4295 92.9646 24.7586 89.8961 23.5768C86.8237 22.395 83.4582 21.8041 79.7995 21.8041C76.1408 21.8041 72.7557 22.4107 69.656 23.6237C66.5562 24.8368 63.9138 26.5195 61.7288 28.6795C59.5437 30.8396 57.8316 33.4105 56.5925 36.3963C55.3534 39.382 54.7319 42.6769 54.7319 46.2848C54.7319 49.8928 55.3534 53.2033 56.5925 56.2164C57.8316 59.2296 59.5593 61.8201 61.7757 63.9762C63.992 66.1363 66.6305 67.819 69.7029 69.032C72.7713 70.2412 76.1369 70.8516 79.7995 70.8516C83.4621 70.8516 86.8276 70.2451 89.8961 69.032C92.9646 67.8229 95.6109 66.1363 97.8233 63.9762C100.04 61.8201 101.752 59.2335 102.96 56.2164C104.167 53.1994 104.777 49.8928 104.777 46.2848C104.777 42.6769 104.171 39.3664 102.96 36.3532C101.748 33.3401 100.036 30.7535 97.8233 28.5934V28.5856ZM90.8694 51.2428C90.2792 52.722 89.4661 53.9898 88.4342 55.0542C87.3983 56.1186 86.1436 56.9482 84.6699 57.5391C83.1924 58.13 81.5702 58.4274 79.7995 58.4274C78.0288 58.4274 76.4027 58.1339 74.929 57.5391C73.4515 56.9482 72.185 56.1186 71.1218 55.0542C70.0586 53.9898 69.2299 52.7024 68.6396 51.1959C68.0494 49.6893 67.7523 48.0497 67.7523 46.2731C67.7523 44.4965 68.0455 42.8726 68.6396 41.3973C69.2299 39.922 70.0586 38.6464 71.1218 37.5859C72.185 36.5254 73.4554 35.6958 74.929 35.101C76.4027 34.5101 78.0288 34.2127 79.7995 34.2127C81.5702 34.2127 83.1963 34.5101 84.6699 35.101C86.1436 35.6919 87.4179 36.5059 88.4811 37.5389C89.5443 38.5759 90.3534 39.8438 90.9163 41.3503C91.4753 42.8569 91.7567 44.4965 91.7567 46.2731C91.7567 48.0497 91.4596 49.7636 90.8694 51.2389V51.2428Z" fill="#5456D1"/>
<path d="M165.075 64.8919C164.7 63.3266 163.774 62.5401 163.774 62.5401C162.531 61.4796 160.658 61.4444 160.471 61.4405C160.471 61.4405 160.338 61.4405 160.221 61.4405C158.254 61.5227 155.585 65.6706 154.963 66.6567C153.783 68.4803 152.067 70.836 149.686 73.3052C146.669 76.4318 143.975 78.3297 141.892 79.7267C135.36 84.1173 129.047 86.5591 129.047 86.5591C118.818 90.6014 108.878 90.9653 104.339 90.9457C99.8012 90.8479 89.8726 90.2218 79.7565 85.9095C79.7565 85.9095 73.514 83.3033 67.0995 78.7367C65.0552 77.281 62.4089 75.3166 59.4772 72.1078C57.859 70.339 56.5651 68.6329 55.5449 67.1302C55.3495 66.8446 55.115 66.4963 54.8374 66.058C54.8374 66.058 54.6029 65.6902 54.3801 65.3223C53.3911 63.6827 53.0472 62.1449 51.9644 61.0922C50.9794 60.1374 49.4666 59.6678 48.0712 59.8674C46.8985 60.0318 46.0776 60.6305 45.6828 60.967C45.6828 60.967 44.7369 61.7301 44.3186 63.2836C42.6066 69.6347 51.1396 80.0476 51.1396 80.0476C54.7592 84.4655 61.5763 91.4231 73.2795 96.9681C80.3233 100.306 87.0661 101.605 90.5372 102.306C95.947 103.401 100.63 103.832 104.163 104V103.992C107.701 103.918 112.392 103.613 117.833 102.662C121.323 102.051 128.098 100.932 135.227 97.7859C147.075 92.554 154.076 85.7803 157.813 81.4602C157.813 81.4602 166.619 71.2782 165.075 64.8841V64.8919Z" fill="#5456D1"/>
</svg>
